<?xml version="1.0" encoding="utf-8"?>
<!-- Generator: Adobe Illustrator 16.0.0, SVG Export Plug-In . SVG Version: 6.00 Build 0)  -->
<!DOCTYPE svg PUBLIC "-//W3C//DTD SVG 1.1//EN" "http://www.w3.org/Graphics/SVG/1.1/DTD/svg11.dtd">
<svg version="1.1" id="Layer_1" xmlns="http://www.w3.org/2000/svg" xmlns:xlink="http://www.w3.org/1999/xlink" x="0px" y="0px"
	 width="87.063px" height="78.589px" viewBox="0 0 87.063 78.589" enable-background="new 0 0 87.063 78.589" xml:space="preserve">
<g>
	<path fill-rule="evenodd" clip-rule="evenodd" fill="#181616" d="M43.532,0C19.493,0,0,18.038,0,40.289
		c0,17.802,12.473,32.903,29.77,38.231c2.175,0.373,2.974-0.874,2.974-1.939c0-0.96-0.04-4.135-0.059-7.501
		c-12.11,2.438-14.666-4.753-14.666-4.753c-1.98-4.657-4.833-5.896-4.833-5.896c-3.95-2.501,0.298-2.45,0.298-2.45
		c4.371,0.285,6.673,4.153,6.673,4.153c3.882,6.158,10.184,4.379,12.668,3.35c0.391-2.604,1.519-4.383,2.764-5.389
		c-9.669-1.018-19.834-4.474-19.834-19.911c0-4.399,1.701-7.993,4.486-10.814c-0.452-1.015-1.942-5.113,0.422-10.662
		c0,0,3.655-1.083,11.974,4.13c3.473-0.893,7.197-1.341,10.896-1.356c3.699,0.016,7.426,0.463,10.906,1.356
		c8.309-5.213,11.958-4.13,11.958-4.13c2.37,5.549,0.881,9.647,0.429,10.662c2.79,2.821,4.479,6.416,4.479,10.814
		c0,15.475-10.183,18.881-19.877,19.879c1.562,1.25,2.953,3.702,2.953,7.46c0,5.392-0.051,9.73-0.051,11.057
		c0,1.073,0.783,2.329,2.99,1.934c17.287-5.333,29.744-20.431,29.744-38.226C87.063,18.038,67.573,0,43.532,0z"/>
	<path fill="#181616" d="M16.488,57.847c-0.096,0.201-0.436,0.261-0.746,0.122c-0.316-0.131-0.493-0.403-0.391-0.604
		c0.094-0.205,0.435-0.263,0.75-0.126C16.417,57.37,16.597,57.646,16.488,57.847L16.488,57.847z M15.952,57.479"/>
	<path fill="#181616" d="M18.251,59.667c-0.208,0.178-0.614,0.096-0.889-0.186c-0.285-0.282-0.338-0.657-0.127-0.838
		c0.214-0.178,0.607-0.095,0.893,0.186C18.413,59.113,18.468,59.486,18.251,59.667L18.251,59.667z M17.836,59.254"/>
	<path fill="#181616" d="M19.968,61.987c-0.267,0.171-0.703,0.011-0.973-0.348c-0.267-0.357-0.267-0.787,0.006-0.96
		c0.27-0.172,0.7-0.017,0.973,0.338C20.24,61.382,20.24,61.813,19.968,61.987L19.968,61.987z M19.968,61.987"/>
	<path fill="#181616" d="M22.319,64.229c-0.238,0.243-0.747,0.177-1.119-0.155c-0.381-0.324-0.486-0.785-0.248-1.029
		c0.242-0.244,0.753-0.175,1.128,0.155C22.458,63.524,22.573,63.988,22.319,64.229L22.319,64.229z M22.319,64.229"/>
	<path fill="#181616" d="M25.563,65.531c-0.106,0.315-0.595,0.459-1.087,0.324c-0.493-0.138-0.815-0.508-0.716-0.825
		c0.102-0.319,0.594-0.468,1.091-0.325C25.342,64.843,25.665,65.209,25.563,65.531L25.563,65.531z M25.563,65.531"/>
	<path fill="#181616" d="M29.126,65.772c0.012,0.332-0.406,0.606-0.924,0.614c-0.52,0.01-0.942-0.259-0.948-0.586
		c0-0.336,0.409-0.608,0.929-0.616C28.701,65.175,29.126,65.442,29.126,65.772L29.126,65.772z M29.126,65.772"/>
	<path fill="#181616" d="M32.441,65.25c0.062,0.324-0.298,0.656-0.812,0.745c-0.505,0.086-0.973-0.114-1.038-0.436
		c-0.063-0.332,0.304-0.666,0.809-0.751C31.914,64.726,32.375,64.92,32.441,65.25L32.441,65.25z M32.441,65.25"/>
</g>
</svg>
